/* XPM */
static char *cc90fc193eb84fa1b359e132a852523a[] = {
/* columns rows colors chars-per-pixel */
"16 16 61 1 ",
"  c #292928",
". c #343433",
"X c #393938",
"o c #3E3D3D",
"O c #595858",
"+ c #5D5D5C",
"@ c #5E5D5D",
"# c #61605F",
"$ c #626161",
"% c #636362",
"& c #6C6B6B",
"* c #6E6D6D",
"= c #717170",
"- c gray45",
"; c #7B7B7B",
": c gray49",
"> c #7E7E7D",
", c #7E7E7E",
"< c #80807F",
"1 c #808080",
"2 c #818181",
"3 c gray51",
"4 c #868686",
"5 c #888887",
"6 c #898989",
"7 c #939392",
"8 c #959594",
"9 c #9C9B9B",
"0 c gray64",
"q c #A4A4A3",
"w c #A4A4A4",
"e c #A5A4A4",
"r c #AAAAA9",
"t c #AAAAAB",
"y c #ACABAA",
"u c #ACACAC",
"i c #ADADAC",
"p c gray68",
"a c #AFAEAD",
"s c #AFAFAE",
"d c #AFAFAF",
"f c #B0B0AF",
"g c gray69",
"h c #B2B2B2",
"j c #B5B5B4",
"k c #B7B7B7",
"l c #B9B8B8",
"z c #BEBEBD",
"x c gray75",
"c c #C0C0C0",
"v c #C6C5C5",
"b c #CBCBCB",
"n c #CFCECD",
"m c #DBDBDA",
"M c #E0E0DF",
"N c #E1E1E1",
"B c #E9E9E9",
"V c #F6F6F6",
"C c #FCFCFB",
"Z c gray100",
"A c None",
/* pixels */
"AAAAAAAAAAAAAAAA",
"AAAABAA5AAAAAAAA",
"AAAcAAA+AdAA7AAA",
"AAAAAAAAAAAdAAAA",
"AcAAAAAAAAAAAd:A",
"AA&AAmAAleAAAAAA",
"AAAAZOdd#+y:AAAA",
"A0AA*VZ%AAb6AAgA",
"AAAAAZCeANZqAAAA",
"ArAAAA:NngvXAA3A",
"AAAAAoAA. AAAAAA",
"AgAAAAAAAAAAAAdA",
"AAgAAAAAAAAAA-AA",
"AAAAAr8Ajj9A3AAA",
"AAAAz43-%-<zAAAA",
"AAAAAAA;AAAAAAAA"
};
