/* XPM */
static char *_081e847cca44fcefcadf2a127f27266[] = {
/* columns rows colors chars-per-pixel */
"64 64 79 1 ",
"  c #000000",
". c #080807",
"X c #0B0B0B",
"o c #100F0F",
"O c #10100F",
"+ c #151514",
"@ c #1B1B1B",
"# c #252424",
"$ c #2C2C2C",
"% c #302F2F",
"& c #343433",
"* c #383737",
"= c #393837",
"- c #3C3C3B",
"; c #403F3F",
": c #41403F",
"> c #434343",
", c #474748",
"< c #4C4C4B",
"1 c #504F4F",
"2 c #51504F",
"3 c #545353",
"4 c #585857",
"5 c #5D5C5C",
"6 c #61605F",
"7 c #646363",
"8 c #686767",
"9 c #696867",
"0 c #6C6C6C",
"q c #706F6F",
"w c #71706F",
"e c #747474",
"r c #797776",
"t c #797877",
"y c #7C7B7B",
"u c #807F7E",
"i c #80807F",
"p c #848483",
"a c #888887",
"s c #878888",
"d c #8C8C8B",
"f c #908F8E",
"g c #91918F",
"h c #949493",
"j c #989796",
"k c #9C9C9B",
"l c #A09F9E",
"z c #A0A09F",
"x c #A5A4A4",
"c c #A8A7A6",
"v c #A9A8A7",
"b c #ABABAA",
"n c #B0B0AF",
"m c #B4B4B3",
"M c #B8B7B6",
"N c #B9B8B7",
"B c #BBBBBB",
"V c #C0BFBE",
"C c #C0C0BF",
"Z c #C4C3C3",
"A c #C8C7C7",
"S c #C8C8C7",
"D c #CCCCCB",
"F c #D0CFCF",
"G c #D0D0CF",
"H c #D3D3D3",
"J c #D9D8D7",
"K c #DCDCDC",
"L c #E0DFDF",
"P c #E1E1DF",
"I c #E4E4E3",
"U c #E8E8E7",
"Y c #EBEBEB",
"T c #F0EFEF",
"R c #F0F0EF",
"E c #F4F4F4",
"W c #F8F8F7",
"Q c #FEFEFE",
"! c None",
/* pixels */
"!!!!!!!!!!!!!!!!!!!!!!!!!!!!!!!!!!!!!!!!!!!!!!!!!!!!!!!!!!!!!!!!",
"!!!!!!!!!!!!!!!!!!!!!!!!!!!!!!!!!!!!!!!!!!!!!!!!!!!!!!!!!!!!!!!!",
"!!!!!!!!!!!!!!!!!!!!!!!!QQYHBBZBBBZZDKRQ!!!!!!!!!!!!!!!!!!!!!!!!",
"!!!!!!!!!!!!!!!!!!!!!QYHmhq!!!!!!!!!ittkBJQ!!!!!!!!!!!!!!!!!!!!!",
"!!!!!!!!!!!!!!!!!!!WZkk!!!!!!!!!!!!!!!!!!fkCR!!!!!!!!!!!!!!!!!!!",
"!!!!!!!!!!!!!!!!!RBs!!!!!!!!Yd!!!!!!!!f!!!!hdBY!!!!!!!!!!!!!!!!!",
"!!!!!!!!!!!!!!!QAf!!!!!!!!!!Jxk!!!!!!Q !Qf!!!qfD!!!!!!!!!!!!!!!!",
"!!!!!!!!!!!!!!Ikq!!Rb!!!!!!!RJQ!!!!!!E!!Q+!!!!!5xY!!!!!!!!!!!!!!",
"!!!!!!!!!!!!!Ds!!!!fpt!!!!!Qp&q6!!!!!k!!J!!!!!!!!sH!!!!!!!!!!!!!",
"!!!!!!!!!!!WN8!!!!!cQJ!!!!!!!!!!!!!!!<UR&!!!!!!!!!yD!!!!!!!!!!!!",
"!!!!!!!!!!Ex8!!!!!!!JkK!!!!!!QY!YII!!!u>!!!!!!Ql !!6B!!!!!!!!!!!",
"!!!!!!!!!Yx4!!!!!!!!<.!!!Dkr-+ !! X$rax!!!!!!!Cp!!!!rB!!!!!!!!!!",
"!!!!!!!!!b0!!tx!!!!!!!!B> !!!!!!!!!!!!X4B!!!!DqmIQ !!8D!!!!!!!!!",
"!!!!!!!!Bt!!!!IH!!!!!Z&!!!!!!!!!!!!!!!!!!#k!!!!QL%!!!!yH!!!!!!!!",
"!!!!!!!Zy!!!!!!H5!!Y4!!!!!!!!!!!!!!!!!!!!!!4!!!b$!!!!!!pY!!!!!!!",
"!!!!!!Ys!!!!!!!!!!AO!!!!!!!!!!!!!!!!!!!!!!!!$L!!!!!!!!!!b!!!!!!!",
"!!!!!!b>!!!!!!!!!Z !!!!!!!!!!!!!!!!!!!!!!!!!!oj!!!!!IB!!rD!!!!!!",
"!!!!!I7!!a!!!!!!B!!!!!!!!!!!!!!!!!!!!!!!!!!!!!@k!!!J$ 7!!xW!!!!!",
"!!!!!b!!n%Un!!!A !!!!!!!!!!!!!!!!!!!!!!!!!!!!!!%2!Qq!!Hh!hH!!!!!",
"!!!!Kr!Q#!JB!!QO!!!!!!!!!!!!!!!!!!!!!!!!!!!!!!!!<!!h!!Q>!!bY!!!!",
"!!!!Dy!Qa!!Y!!q!!!!!!!!!!!!!!!!!!!!!!!!!!!!!!!!!!q!0ID6!!!zU!!!!",
"!!!Ym!!!xPI>!Y!!!!!!!JBbcs !!!!07y#!f6u@!!!!!!!!!!0!X!!!!!!JI!!!",
"!!!Yb!!!!*X!!<!!!!!!!53w4 !!!!!750>!p50#!!!!!!!!!!i!!!!!!!!ZQ!!!",
"!!!Ln!!!!!!!P!!!!!!!nij5!!!!FVZdyuacauyaZbmZ!!!!!!!r!!!!!!!BY!!!",
"!!EK!!!!!!!!2!!!!!!Jp0$!!!Jdiuugjhjagjjjpiuifa!!!!!s!!!!!!!!U!!!",
"!!EF!!!!!!!R!!!!!!Dxs!!!!Idkxcxcvvbbbbbvcxcxvn$!!!!x<!!!!!!!HQ!!",
"!!WZ!!!!!!!n!!!!KNxSp!!!!bnBNmHKJHGGGHHHJJmBNJg!!!!!t!!!!!!!FE!!",
"!!UB!!!!!!!t!!!!NZGPa!!!!VGDDIn8<>=$$$%*,hUJJRC!!!!!z!!!!!!!BR!!",
"!!Y!!!!b!!!1!!!!QQUDKERBaUIKRP!!!!!!!!!!!!KIJYB!!!!!B!!!!!!!MY!!",
"!!Y!!0Qk!!W%!!!!y6!fQUEbeQEYQm!!!!!!!!!!!!!!!!!!!!!!U!!!2!T!!Y!!",
"!!H!!QQQW!!!!!!!!!!!QEQNpQQEQb!!!!!!!!!!!!!!!!!!!!!!!!!!QQ<!!U!!",
"!WJ!!pbn!!U!!!!!!!!!QQQNyQQQQn!!!!!DQWEWEQQQQQW!!!!!!!!rWQn!!K!!",
"!UY!!!!@!!Q!!!!!!!!!RQQByQQQQn!!!!!IQQQQQQQWQQY!!!!!Q*!!Y50!!I!!",
"!!I!!!!!!!Q!!!!!!!!!YQQntQWWQm!!!!!SIIIIIGYQEQU!!!!!QX!!r!!!nK!!",
"!!Us!!!!!!!-!!!!!!!!UEQx!QRYQm!!!!!!!!!!!!PQYQJ!!!!!E!!!!!!!nF!!",
"!!Up!!!b!!!4!!!!!!!!!YQk!YIKRB!!!!!!!!!!!!PPLWC!!!!!Z!!!!!!!fH!!",
"!!Ux!qEIRQ!e!!!!!!!!!PQk!HJDDHFJPIEQQQQQQYSDDYb!!!!!p!!Q1!!!fJ!!",
"!!Yk!!UQR@!n!!!!!!!!!GY7!xJBBBANmmmmmMmmMNVBBIt!!!!!8!BQQE<!bK!!",
"!!Ka!!Dty!!B!!!!!!!!!!!!!%AZnbbbcbcbbcbbbvbmSm@!!!!Q@!!QQ2!!kU!!",
"!!Ik!!!! !!!t!!!!!!!!!!!!!.4afhhhhlxhhhkcczht@!!!!!m!!!62-!!x!!!",
"!!!mq!!!!!!!q!!!!!!ms!!!!!!!!!<qaf9&rad6&%#!!!!!!!Q$!!!!!!!sN!!!",
"!!!Bt!!!!!!!!8!!!!!94k!!!!!!!!!eyg*!kyh=!!!!!!!!!!B!!!!!!!!tF!!!",
"!!!Dy!!!!AxQf7!!!!!ruge863<-;%!4>2@!0-2#!!!!!!!!!Q<!!D!!!!4hJ!!!",
"!!!!k7!!JQQx!!d!!!!-$@!!!!!!!!!!!!!!!!!!!!!!!!!!!f!fQVm!!!0n!!!!",
"!!!!Mi!!!WRk!!&p!!!!!!!!!!!!!!!!!!!!!!!!!!!!!!!!J !!QQQp!!yD!!!!",
"!!!!!jt!!m!%!!!#!!!!!!!!!!!!!!!!!!!!!!!!!!!!!!!EX!!QhJ<!!dc!!!!!",
"!!!!!ms!!!!!!!!!6!!!!!!!!!!!!!!!!!!!!!!!!!!!!!E@!!!!!@.!kdD!!!!!",
"!!!!!!Bd!!!!!5!!!+!!!!!!!!!!!!!!!!!!!!!!!!!!!L&!!!5!!!!!kB!!!!!!",
"!!!!!!!me!!!!KWe!!#n!!!!!!!!!!!!!!!!!!!!!!!!DX!!QJ@!!!!fB!!!!!!!",
"!!!!!!!HBy!!MWQF!!! 5!!!!!!!!!!!!!!!!!!!!!R8 !!!QUQ!!!nBI!!!!!!!",
"!!!!!!!!WC!!!Uff!!!!!-i!!!!!!!!!!!!!!!!!Yp>!!!!QUQl%!!ZY!!!!!!!!",
"!!!!!!!!!Wc!!b!!!!!QBk4>0D!!!!!!!!!!!!mqq5!!!!!!!s!!!BY!!!!!!!!!",
"!!!!!!!!!!Ux!!!!!!!8%*nZ!!>ef!!NJAkae;>shxh-!!!!!!!!mK!!!!!!!!!!",
"!!!!!!!!!!!Ux!!!!!!ZB!!bQ!!w07e!+!qt4!QE7aMG!!!!!!kBI!!!!!!!!!!!",
"!!!!!!!!!!!!Ybf!!!QUDQQQJaBkbAAb!!YBt0QRUAQQk!!!!BBK!!!!!!!!!!!!",
"!!!!!!!!!!!!!YBh!!mRmhbA<!E>!.hBkQheI!MQW!BQD!!!kDI!!!!!!!!!!!!!",
"!!!!!!!!!!!!!!KUn0!8nFb!!QE!!!!Q<q!!Q!!YKkMz!!zbKK!!!!!!!!!!!!!!",
"!!!!!!!!!!!!!!!!UKM!!*s;!QJZ!!QU!!!!Qt!7qr1!!ZBK!!!!!!!!!!!!!!!!",
"!!!!!!!!!!!!!!!!!HJDx,#!!!ybbBAt!!!!g-!!!!3zBDJ!!!!!!!!!!!!!!!!!",
"!!!!!!!!!!!!!!!!!!!ZZnfhs!!-$%;!!!!!!#!ppkbBA!!!!!!!!!!!!!!!!!!!",
"!!!!!!!!!!!!!!!!!!!!!!Bxfhjy51;3ye84qaffxm!!!!!!!!!!!!!!!!!!!!!!",
"!!!!!!!!!!!!!!!!!!!!!!!!!bzkhddsspphxnC!!!!!!!!!!!!!!!!!!!!!!!!!",
"!!!!!!!!!!!!!!!!!!!!!!!!!!!!!!!!!!!!!!!!!!!!!!!!!!!!!!!!!!!!!!!!",
"!!!!!!!!!!!!!!!!!!!!!!!!!!!!!!!!!!!!!!!!!!!!!!!!!!!!!!!!!!!!!!!!"
};
