/* XPM */
static char *_4d90efa5eeb454399a49e1024d033c7[] = {
/* columns rows colors chars-per-pixel */
"32 32 244 2 ",
"   c #0A0909",
".  c gray8",
"X  c #1C1B1B",
"o  c gray12",
"O  c #272626",
"+  c #2C2C2C",
"@  c #2D2C2C",
"#  c gray19",
"$  c #333332",
"%  c #353534",
"&  c #3A3939",
"*  c #3A3A39",
"=  c gray24",
"-  c #403F3D",
";  c #454443",
":  c #454444",
">  c #464545",
",  c #474746",
"<  c #4E4D4D",
"1  c #4F4E4D",
"2  c #4E4E4E",
"3  c #505050",
"4  c #535353",
"5  c #575756",
"6  c gray34",
"7  c #585858",
"8  c #5A5A59",
"9  c #5D5D5C",
"0  c #5E5D5D",
"q  c #5E5E5D",
"w  c #5F5E5E",
"e  c #616060",
"r  c #656463",
"t  c #656564",
"y  c #656565",
"u  c #666665",
"i  c gray40",
"p  c #676767",
"a  c #686767",
"s  c #686867",
"d  c #696968",
"f  c gray42",
"g  c #6C6C6B",
"h  c gray43",
"j  c #6E6E6F",
"k  c #6F6F6F",
"l  c #717171",
"z  c #727271",
"x  c #727272",
"c  c #747372",
"v  c #747474",
"b  c #767574",
"n  c #757675",
"m  c #767675",
"M  c #777675",
"N  c #767676",
"B  c #777776",
"V  c #777777",
"C  c #7A7A79",
"Z  c #7C7C7B",
"A  c #7C7C7C",
"S  c #7D7C7C",
"D  c #7F7F7E",
"F  c gray50",
"G  c #80807F",
"H  c #818180",
"J  c #818181",
"K  c #838383",
"L  c #848382",
"P  c #848484",
"I  c #858584",
"U  c gray52",
"Y  c #868584",
"T  c #898987",
"R  c #888888",
"E  c #898989",
"W  c #8A8989",
"Q  c gray54",
"!  c #8B8B8A",
"~  c #8B8B8B",
"^  c #8C8B8B",
"/  c #8C8D8B",
"(  c gray55",
")  c #8D8C8C",
"_  c #8C8D8C",
"`  c #8E8D8C",
"'  c #8E8D8D",
"]  c #8E8E8E",
"[  c #8F8F8E",
"{  c #908F8F",
"}  c #91908E",
"|  c #909090",
" . c #919190",
".. c #929291",
"X. c #939392",
"o. c #959595",
"O. c #969595",
"+. c #979796",
"@. c #989898",
"#. c gray60",
"$. c #9A9998",
"%. c #9B9B99",
"&. c #9B9B9B",
"*. c #9C9C9B",
"=. c #9D9C9B",
"-. c #9E9D9D",
";. c #9F9E9D",
":. c gray62",
">. c #9F9F9E",
",. c #9E9E9F",
"<. c #9F9F9F",
"1. c #A0A09F",
"2. c #9F9FA0",
"3. c #A1A1A0",
"4. c #A2A2A1",
"5. c #A3A2A1",
"6. c #A2A2A2",
"7. c gray64",
"8. c #A4A3A2",
"9. c #A5A4A3",
"0. c #A5A5A4",
"q. c #A5A5A5",
"w. c #A7A7A5",
"e. c gray65",
"r. c #A9A9A8",
"t. c #AAA9A8",
"y. c #AAAAA9",
"u. c #AAAAAA",
"i. c #ADADAB",
"p. c #ACACAC",
"a. c #ADADAC",
"s. c gray68",
"d. c #AFAFAF",
"f. c #B0AFAE",
"g. c #B1B0AF",
"h. c gray69",
"j. c #B1B1B0",
"k. c #B1B1B1",
"l. c #B4B4B3",
"z. c #B4B4B4",
"x. c #B5B5B4",
"c. c gray71",
"v. c #B6B5B4",
"b. c #B6B6B5",
"n. c #B7B6B5",
"m. c #B6B6B6",
"M. c #B6B7B7",
"N. c #B7B7B7",
"B. c gray72",
"V. c #B9B8B8",
"C. c #B9B9B8",
"Z. c #B9B9B9",
"A. c #BABAB9",
"S. c #BBBBBB",
"D. c #BCBBBA",
"F. c #BDBCBB",
"G. c #BCBCBC",
"H. c gray74",
"J. c gray",
"K. c #BFBFBE",
"L. c gray75",
"P. c #BFBFC0",
"I. c #C1C1C1",
"U. c gray76",
"Y. c #C3C3C2",
"T. c #C3C3C3",
"R. c #C4C3C2",
"E. c #C4C4C3",
"W. c gray77",
"Q. c #C5C5C5",
"!. c #C6C5C5",
"~. c #C6C6C5",
"^. c #C6C6C6",
"/. c gray78",
"(. c #C8C8C7",
"). c #C8C8C8",
"_. c #C9C9C8",
"`. c #C8C8C9",
"'. c #CAC9C8",
"]. c #CACAC9",
"[. c #CACACA",
"{. c #CBCBCA",
"}. c #CCCBCA",
"|. c #CDCDCC",
" X c #CECECE",
".X c gray81",
"XX c gray82",
"oX c #D2D2D1",
"OX c #D2D2D2",
"+X c #D3D3D2",
"@X c LightGray",
"#X c #D4D4D3",
"$X c gray83",
"%X c #D6D6D5",
"&X c #D7D7D5",
"*X c gray84",
"=X c #D9D9D7",
"-X c #D8D8D8",
";X c gray85",
":X c #DBDBD9",
">X c gray86",
",X c #DCDCDB",
"<X c gainsboro",
"1X c #DDDDDC",
"2X c #DEDEDD",
"3X c gray87",
"4X c #DFDFDF",
"5X c #E0E0DF",
"6X c gray88",
"7X c #E1E1E1",
"8X c #E2E1E0",
"9X c #E2E1E1",
"0X c #E2E2E1",
"qX c #E2E2E2",
"wX c gray89",
"eX c #E4E4E3",
"rX c #E3E3E4",
"tX c #E5E5E4",
"yX c gray90",
"uX c #E6E5E5",
"iX c #E6E6E6",
"pX c #E7E7E6",
"aX c #E8E8E7",
"sX c #E9E8E7",
"dX c #E9E8E8",
"fX c #E9E9E9",
"gX c #EAE9E9",
"hX c #EAEAEA",
"jX c gray92",
"kX c #ECECEC",
"lX c #EDEDEC",
"zX c #EEEEED",
"xX c #F0EFEE",
"cX c gray94",
"vX c #F4F4F4",
"bX c #F6F6F6",
"nX c #F7F7F6",
"mX c #FAFAF9",
"MX c gray98",
"NX c #FCFCFA",
"BX c #FDFDFC",
"VX c #FDFDFD",
"CX c gray100",
"ZX c None",
/* pixels */
"ZXZXZXZXZXZXZXZXZXZXZXZXZXZXZXZXZXZXZXZXZXZXZXZXZXZXZXZXZXZXZXZX",
"ZXZXZXZXZXZXZXZXZXZXZXvX&Xp.`.qX@Xk.n.`.@XZXZXZXZXZXZXZXZXZXZXZX",
"ZXZXZXZXZXZXZXZXZX@XS.u.ZXZXZXZXZXZXZXZXZXN.`.ZXZXZXZXZXZXZXZXZX",
"ZXZXZXZXZXZXZX4XS.ZXZXZXZXZXCX@ ZXZXZX..ZXZXZXJ iXZXZXZXZXZXZXZX",
"ZXZXZXZXZXZXW.~ ZXZX&XZXZXZX_ G ZXZXZXS.+ ZXZXZXf Y.ZXZXZXZXZXZX",
"ZXZXZXZXZXH.k.ZXZXZXn ZXZXZXZXZXZXZXZX_ ZXZXZXH.ZXZX7.ZXZXZXZXZX",
"ZXZXZXZX`.ZXZX(.ZXZXZXx ZXZXZXZXZXZXZXZXZXZXZXl. XZXZXn.ZXZXZXZX",
"ZXZXZXW.8 ZXZXZXZXZX, ZXZXZXZXZXZXZXZXZXZXZXZX6.ZXZXZX_  XZXZXZX",
"ZXZXZXO.ZXZXZXZX-.ZXZXZXZXZXZXZXZXZXZXZXZXZXZXZXZXZXJ ZX~ ZXZXZX",
"ZXZX6.hXn.S ZXCXZXZXZXZXZXZXZXZXZXZXZXZXZXZXZXZXZXl.ZX{ ZXH.ZXZX",
"ZXZXk.ZX..~ n.ZXZXZXZXZX}.ZXZXZXu.ZXZX~ ZXZXZXZXZXZX6.ZXZXhXZXZX",
"ZXhXqXZXZXZXZXZXZXZXY.1   ZXZXO.- a n $ ZXZXZXZXZXZXZXZXZXiXqXZX",
"ZX;XZXZXZXZXZXZXZXsX* ZXZXeX/ w.D.F.l.R.g./ 1.ZXZXZXZXZXZXZXiXZX",
"ZX;XZXZXZXZXZXZXCX&X, ZXCXw.`.n.Y e 0 w T qXCX; ZXZXZXZXZXZX4XZX",
"ZXW.ZXiXZXZXZXZX-./ CXhXk.mXlXZXZXZXZXZXZXX.u.ZXZXZXZXZXZXZXY.mX",
"ZX@XZX9.ZXZXZXZXZXZXCX@XC.CXeXZXZXZXCXCXCXW.W.ZXZXZXZXZXCXP 2.cX",
"ZXqXZXZXZXZXZXZXZXZXCX5XH.CXsXZXZXZXE.=X;XCXCXn ZXZXZXZXJ ZXN.rX",
"ZXW.ZXZXZXZXZXZXZXZXvX#Xk.CX`.ZXZXZXZXZXZXqXCXs ZXZXZXZXZXZXL.kX",
"ZXk.ZXCX`.ZXZXZXZXZX4X*.8 kXW.wX4XqXhXiXiX}.NX# ZXZXZX4XCXZX-.ZX",
"ZXw.ZXg ZXZXZXZXZXZXZXZXZXd } -.8.;.$.8.i.l.! ZXZXZXZX`.O.ZX@XZX",
"ZX`.= ZXZXZXZXZXZX,X0 ZXZXZX~ J Y s ..n ZXZXZXZXZXZXZXZXZXi >XZX",
"ZXZXj ZXCXvXZXZXZXi 1 r 1 ZXZXZXX ZXZX. ZXZXZXZXZX, hXZXZXg ZXZX",
"ZXZXH.ZXZX%.ZXZXZXZXZXZXZXZXZXZXZXZXZXZXZXZXZXZXZXZXkXw.ZXd.ZXZX",
"ZXZXZXw.ZXZXZXZXC ZXZXZXZXZXZXZXZXZXZXZXZXZXZXa ZXZXZXZX~ ZXZXZX",
"ZXZXZXS._ ZXpXCXZXZXZXZXZXZXZXZXZXZXZXZXZXZXZXZXCX-.ZX..qXZXZXZX",
"ZXZXZXZXhXF ZX0 ZXZXs _ ZXZXZXZXZXZXZXZXp.* ZXZX~ ZXZXhXZXZXZXZX",
"ZXZXZXZXZXhX&.ZXZXCX~ O.B Z D.ZXZXu.S { _ S.ZXZXZXZXqXZXZXZXZXZX",
"ZXZXZXZXZXZXW.Y.ZX>X4X X XZ O Z t.f.B vX}.CXi ZX-X&XZXZXZXZXZXZX",
"ZXZXZXZXZXZXZX;Xn.V x 4 ZX XZXCX% ZX@X5 %.j P S.;XZXZXZXZXZXZXZX",
"ZXZXZXZXZXZXZXZXZXP.A 3 i L p.x ZXZXi o 8 n H.ZXZXZXZXZXZXZXZXZX",
"ZXZXZXZXZXZXZXZXZXZXZXY.%.j 8 1 P n x i.H.ZXZXZXZXZXZXZXZXZXZXZX",
"ZXZXZXZXZXZXZXZXZXZXZXZXZXZXZXZX-.S.ZXZXZXZXZXZXZXZXZXZXZXZXZXZX"
};
